<svg width="64" height="64" viewBox="0 0 64 64" fill="none" xmlns="http://www.w3.org/2000/svg">
  <defs>
    <linearGradient id="g-globe" x1="14" y1="50" x2="52" y2="14" gradientUnits="userSpaceOnUse">
      <stop stop-color="#1d4ed8"/>
      <stop offset="0.55" stop-color="#2563eb"/>
      <stop offset="1" stop-color="#22c55e"/>
    </linearGradient>
    <linearGradient id="g-env" x1="20" y1="52" x2="46" y2="30" gradientUnits="userSpaceOnUse">
      <stop stop-color="#1e40af"/>
      <stop offset="1" stop-color="#3b82f6"/>
    </linearGradient>
    <linearGradient id="g-plane" x1="34" y1="44" x2="52" y2="26" gradientUnits="userSpaceOnUse">
      <stop stop-color="#ffffff"/>
      <stop offset="1" stop-color="#cfe3ff"/>
    </linearGradient>
  </defs>
  <circle cx="32" cy="33" r="21" fill="url(#g-globe)"/>
  <path d="M14 38c6 6 22 8 33 1" stroke="#bfdbfe" stroke-opacity="0.85" stroke-width="2.4" stroke-linecap="round"/>
  <rect x="20" y="33" width="26" height="17" rx="2.5" fill="url(#g-env)"/>
  <path d="M20.5 34.5 33 43l12.5-8.5" fill="none" stroke="#dbeafe" stroke-width="2" stroke-linejoin="round"/>
  <path d="M33 41 53 24 38 45l-1.5-3.5Z" fill="url(#g-plane)"/>
  <path d="M53 24 41 43l-3-4Z" fill="#9cc4ff" fill-opacity="0.9"/>
  <g stroke="#38bdf8" stroke-width="2" stroke-linecap="round" fill="none">
    <path d="M13 22a10 10 0 0 1 9-5"/>
    <path d="M14.5 26a6.5 6.5 0 0 1 6-3.2"/>
    <path d="M16 30a3 3 0 0 1 3-1.6"/>
  </g>
  <g>
    <rect x="20" y="22" width="13" height="9" rx="3" fill="#ffffff"/>
    <path d="M24 31l-2 3v-3Z" fill="#ffffff"/>
    <circle cx="23.5" cy="26.5" r="1.1" fill="#3b82f6"/>
    <circle cx="26.5" cy="26.5" r="1.1" fill="#3b82f6"/>
    <circle cx="29.5" cy="26.5" r="1.1" fill="#3b82f6"/>
  </g>
  <path d="M50 16l1 2.4 2.4 1-2.4 1-1 2.4-1-2.4-2.4-1 2.4-1Z" fill="#4ade80"/>
  <path d="M54 24l.7 1.7 1.7.7-1.7.7-.7 1.7-.7-1.7-1.7-.7 1.7-.7Z" fill="#38bdf8"/>
</svg>
